<?xml version="1.0" encoding="UTF-8"?> <svg xmlns="http://www.w3.org/2000/svg" width="170" height="42" viewBox="0 0 170 42" fill="none"><path d="M44.86 25.64C45.7366 26.5537 46.7894 27.28 47.9548 27.775C49.1202 28.27 50.3739 28.5235 51.64 28.52C54.14 28.52 55.36 27.34 55.36 26.12C55.36 24.52 53.5 23.98 51.04 23.4C47.55 22.6 43.04 21.64 43.04 16.87C43.04 13.32 46.11 10.44 51.14 10.44C54.1938 10.3272 57.1725 11.4025 59.45 13.44L57 16.74C55.3188 15.2325 53.1381 14.4022 50.88 14.41C48.88 14.41 47.75 15.3 47.75 16.58C47.75 18.02 49.54 18.47 52 19.05C55.52 19.85 60 20.9 60 25.64C60 29.54 57.22 32.49 51.46 32.49C49.8009 32.5647 48.1438 32.3028 46.5885 31.7202C45.0332 31.1376 43.6118 30.2463 42.41 29.1L44.86 25.64Z" fill="#2E3940"></path><path d="M62.53 11.94C62.5321 11.4615 62.6753 10.9943 62.9418 10.5969C63.2083 10.1995 63.5861 9.88967 64.028 9.70616C64.4699 9.52265 64.9561 9.47367 65.4257 9.56536C65.8953 9.65706 66.3274 9.88534 66.6677 10.2216C67.0081 10.5578 67.2417 10.9871 67.3391 11.4555C67.4365 11.924 67.3935 12.4108 67.2154 12.8548C67.0373 13.2989 66.7321 13.6805 66.338 13.9519C65.9439 14.2232 65.4784 14.3721 65 14.38C64.6775 14.3826 64.3575 14.3215 64.0586 14.2002C63.7597 14.0789 63.4877 13.8997 63.2582 13.673C63.0287 13.4463 62.8463 13.1765 62.7213 12.8791C62.5963 12.5817 62.5313 12.2626 62.53 11.94ZM62.94 16.65H67V32.1H62.94V16.65Z" fill="#2E3940"></path><path d="M71.84 28.26V20.2H69.28V16.65H71.84V12.42H75.93V16.65H79.07V20.2H75.93V27.2C75.93 28.2 76.44 28.89 77.34 28.89C77.8479 28.9073 78.3461 28.7483 78.75 28.44L79.61 31.52C78.6395 32.2549 77.4341 32.6105 76.22 32.52C73.37 32.49 71.84 31 71.84 28.26Z" fill="#2E3940"></path><path d="M88.8601 16.26C93.4701 16.26 96.6001 19.72 96.6001 24.78V25.67H85.1201C85.2624 26.7219 85.8015 27.6796 86.6269 28.347C87.4524 29.0144 88.5017 29.341 89.5601 29.26C91.0768 29.258 92.5424 28.7115 93.6901 27.72L95.4801 30.34C93.6929 31.8076 91.4312 32.5722 89.1201 32.49C84.4101 32.49 80.8601 29.32 80.8601 24.36C80.8288 23.2963 81.0136 22.2372 81.4033 21.247C81.793 20.2567 82.3795 19.3557 83.1273 18.5986C83.8751 17.8414 84.7687 17.2438 85.7541 16.8418C86.7394 16.4399 87.7961 16.2419 88.8601 16.26ZM85.0501 22.92H92.6701C92.6498 22.4435 92.5345 21.9758 92.3309 21.5445C92.1274 21.1132 91.8397 20.7269 91.4847 20.4083C91.1298 20.0897 90.7148 19.8452 90.2641 19.6892C89.8134 19.5332 89.336 19.4689 88.8601 19.5C87.9073 19.4714 86.98 19.8107 86.2706 20.4475C85.5612 21.0842 85.1242 21.9696 85.0501 22.92Z" fill="#2E3940"></path><path d="M118.71 22.34C118.71 20.9 118.08 19.88 116.41 19.88C115.775 19.9103 115.155 20.0878 114.599 20.3984C114.044 20.709 113.568 21.1443 113.21 21.67V32.1H109.12V22.34C109.12 20.9 108.48 19.88 106.81 19.88C106.173 19.9175 105.553 20.1012 104.998 20.4168C104.443 20.7324 103.968 21.1715 103.61 21.7V32.1H99.55V16.65H103.61V18.65C104.234 17.9131 105.009 17.3179 105.881 16.904C106.754 16.4902 107.704 16.2672 108.67 16.25C109.607 16.1525 110.549 16.3806 111.338 16.896C112.126 17.4114 112.713 18.1826 113 19.08C113.595 18.2195 114.388 17.5143 115.312 17.0236C116.236 16.533 117.264 16.2711 118.31 16.26C121.16 16.26 122.85 17.77 122.85 20.94V32.1H118.75L118.71 22.34Z" fill="#2E3940"></path><path d="M136.09 30.5C135.465 31.1633 134.705 31.685 133.862 32.03C133.018 32.375 132.111 32.5352 131.2 32.5C130.507 32.531 129.815 32.4217 129.166 32.1787C128.516 31.9357 127.922 31.5639 127.42 31.0858C126.917 30.6076 126.517 30.0329 126.242 29.3961C125.967 28.7594 125.823 28.0736 125.82 27.38C125.82 23.76 128.73 22.45 131.2 22.45C132.104 22.3908 133.009 22.5292 133.854 22.8556C134.698 23.182 135.461 23.6886 136.09 24.34V22.18C136.09 20.62 134.75 19.59 132.7 19.59C131.016 19.5919 129.399 20.2481 128.19 21.42L126.65 18.7C128.526 17.0893 130.928 16.2214 133.4 16.26C136.92 16.26 140.16 17.67 140.16 22.12V32.12H136.09V30.5ZM136.09 26.5C135.682 26.0466 135.177 25.6908 134.613 25.4588C134.048 25.2269 133.439 25.1248 132.83 25.16C131.23 25.16 129.92 26.02 129.92 27.49C129.92 28.96 131.23 29.77 132.83 29.77C133.441 29.8093 134.052 29.7079 134.617 29.4739C135.182 29.2399 135.686 28.8793 136.09 28.42V26.5Z" fill="#2E3940"></path><path d="M145 28.26V20.2H142.44V16.65H145V12.42H149.09V16.65H152.23V20.2H149.09V27.2C149.09 28.2 149.61 28.89 150.5 28.89C151.008 28.909 151.507 28.7498 151.91 28.44L152.77 31.52C151.799 32.2549 150.594 32.6105 149.38 32.52C146.52 32.49 145 31 145 28.26Z" fill="#2E3940"></path><path d="M162 16.26C166.61 16.26 169.74 19.72 169.74 24.78V25.67H158.27C158.412 26.7219 158.951 27.6796 159.777 28.347C160.602 29.0144 161.652 29.341 162.71 29.26C164.227 29.2598 165.693 28.7131 166.84 27.72L168.63 30.34C166.843 31.8077 164.581 32.5722 162.27 32.49C157.56 32.49 154.01 29.32 154.01 24.36C153.979 23.2971 154.163 22.239 154.552 21.2494C154.941 20.2598 155.527 19.3593 156.274 18.6023C157.02 17.8453 157.913 17.2474 158.897 16.8449C159.881 16.4423 160.937 16.2433 162 16.26ZM158.19 22.92H165.81C165.79 22.4435 165.674 21.9758 165.471 21.5445C165.267 21.1132 164.98 20.7269 164.625 20.4083C164.27 20.0897 163.855 19.8452 163.404 19.6892C162.953 19.5333 162.476 19.4689 162 19.5C161.049 19.474 160.124 19.8145 159.417 20.451C158.71 21.0875 158.274 21.9714 158.2 22.92H158.19Z" fill="#2E3940"></path><path d="M27.4101 17.68C28.5103 18.6707 29.217 20.0246 29.4006 21.4937C29.5843 22.9629 29.2326 24.449 28.4101 25.68L19.9101 38.68C19.0748 39.9965 17.7727 40.9486 16.265 41.3454C14.7573 41.7423 13.1553 41.5546 11.7801 40.82C10.8209 40.2714 10.0319 39.4686 9.50007 38.5V38.45L5.50007 31.2C5.4187 31.052 5.37617 30.8857 5.37647 30.7167C5.37676 30.5477 5.41986 30.3816 5.50175 30.2338C5.58364 30.086 5.70164 29.9614 5.84474 29.8715C5.98784 29.7817 6.15137 29.7296 6.32007 29.72C7.93318 29.6753 9.5115 29.2408 10.9203 28.4537C12.329 27.6666 13.5264 26.5503 14.4101 25.2L18.4701 19C18.933 18.2801 19.5447 17.6675 20.264 17.2035C20.9833 16.7394 21.7935 16.4347 22.6403 16.3097C23.4871 16.1846 24.3508 16.2422 25.1735 16.4786C25.9962 16.715 26.7588 17.1246 27.4101 17.68Z" fill="#2E81DA"></path><path d="M17.91 1.26002C18.7882 1.80099 19.5089 2.56306 20 3.47002L20.06 3.57002L24.06 10.77C24.1414 10.9181 24.1839 11.0844 24.1836 11.2533C24.1833 11.4223 24.1402 11.5885 24.0583 11.7362C23.9765 11.884 23.8584 12.0087 23.7153 12.0985C23.5722 12.1884 23.4087 12.2405 23.24 12.25C21.6269 12.2948 20.0486 12.7292 18.6398 13.5163C17.2311 14.3034 16.0337 15.4198 15.15 16.77L11.15 22.87C10.3562 24.1219 9.13636 25.0444 7.71559 25.4671C6.29482 25.8898 4.76907 25.7843 3.42002 25.17C2.65059 24.7997 1.96906 24.2695 1.42097 23.6147C0.872884 22.9599 0.470868 22.1957 0.241793 21.3731C0.0127171 20.5505 -0.0381417 19.6885 0.0926152 18.8447C0.223372 18.0009 0.532732 17.1947 1.00002 16.48L9.59002 3.29002C10.4444 1.94058 11.7888 0.97504 13.3405 0.59645C14.8921 0.217861 16.5301 0.455724 17.91 1.26002Z" fill="#2E81DA"></path></svg> 