<?xml version="1.0" encoding="UTF-8"?> <svg xmlns="http://www.w3.org/2000/svg" width="60" height="60" viewBox="0 0 60 60" fill="none"><rect width="60" height="60" rx="10" fill="#F5F6F7"></rect><path d="M23.0537 31.4224V38.1338C23.0537 39.2017 22.6294 40.226 21.8743 40.9812C21.1191 41.7364 20.0948 42.1606 19.0268 42.1606C17.9589 42.1606 16.9346 41.7364 16.1794 40.9812C15.4243 40.226 15 39.2017 15 38.1338V31.4224C15 30.3544 15.4243 29.3301 16.1794 28.5749C16.9346 27.8198 17.9589 27.3955 19.0268 27.3955C20.0948 27.3955 21.1191 27.8198 21.8743 28.5749C22.6294 29.3301 23.0537 30.3544 23.0537 31.4224Z" fill="#2E81DA"></path><path d="M33.792 26.7251V38.1345C33.792 39.2025 33.3677 40.2267 32.6126 40.9819C31.8574 41.7371 30.8331 42.1613 29.7651 42.1613H25.141C25.0698 42.1609 25.0001 42.1416 24.9388 42.1055C24.8776 42.0693 24.827 42.0176 24.7922 41.9555C24.7574 41.8935 24.7397 41.8233 24.7408 41.7522C24.742 41.6811 24.7619 41.6115 24.7987 41.5506C25.4156 40.5181 25.7404 39.3373 25.7383 38.1345V26.7251C25.7383 25.6571 26.1626 24.6329 26.9177 23.8777C27.6729 23.1225 28.6972 22.6982 29.7651 22.6982C30.8331 22.6982 31.8574 23.1225 32.6126 23.8777C33.3677 24.6329 33.792 25.6571 33.792 26.7251Z" fill="#2E81DA"></path><path d="M44.5302 22.0268V38.1342C44.5302 39.2022 44.106 40.2265 43.3508 40.9816C42.5956 41.7368 41.5713 42.1611 40.5034 42.1611H35.8792C35.8081 42.1606 35.7383 42.1414 35.6771 42.1052C35.6158 42.0691 35.5652 42.0173 35.5304 41.9553C35.4956 41.8932 35.4779 41.823 35.4791 41.7519C35.4802 41.6808 35.5002 41.6112 35.5369 41.5503C36.1539 40.5178 36.4786 39.337 36.4765 38.1342V22.0268C36.4765 20.9589 36.9008 19.9346 37.656 19.1794C38.4111 18.4243 39.4354 18 40.5034 18C41.5713 18 42.5956 18.4243 43.3508 19.1794C44.106 19.9346 44.5302 20.9589 44.5302 22.0268Z" fill="#2E81DA"></path></svg> 