<?xml version="1.0" encoding="UTF-8"?> <svg xmlns="http://www.w3.org/2000/svg" width="60" height="60" viewBox="0 0 60 60" fill="none"><rect width="60" height="60" rx="10" fill="#F5F6F7"></rect><path d="M38.3813 27.583C39.1198 28.2479 39.594 29.1566 39.7173 30.1426C39.8405 31.1285 39.6045 32.126 39.0525 32.9522L33.3478 41.677C32.7872 42.5605 31.9133 43.1995 30.9014 43.4658C29.8895 43.7322 28.8144 43.6063 27.8914 43.1132C27.2477 42.745 26.7182 42.2062 26.3612 41.5562V41.5226L23.6766 36.6569C23.622 36.5575 23.5935 36.4459 23.5937 36.3325C23.5939 36.2191 23.6228 36.1076 23.6778 36.0084C23.7327 35.9092 23.8119 35.8255 23.908 35.7652C24.004 35.7049 24.1138 35.67 24.227 35.6636C25.3096 35.6335 26.3689 35.3419 27.3144 34.8137C28.2598 34.2854 29.0634 33.5362 29.6565 32.63L32.3813 28.4689C32.6921 27.9857 33.1026 27.5746 33.5853 27.2632C34.068 26.9518 34.6118 26.7472 35.1801 26.6633C35.7485 26.5794 36.3281 26.6181 36.8803 26.7767C37.4324 26.9353 37.9442 27.2103 38.3813 27.583Z" fill="#2E81DA"></path><path d="M32.0055 16.5634C32.5948 16.9264 33.0785 17.4379 33.4082 18.0466L33.4484 18.1137L36.133 22.9459C36.1876 23.0453 36.2162 23.1569 36.216 23.2703C36.2158 23.3837 36.1868 23.4952 36.1319 23.5944C36.0769 23.6936 35.9977 23.7772 35.9017 23.8375C35.8056 23.8978 35.6959 23.9328 35.5827 23.9392C34.5 23.9692 33.4408 24.2608 32.4953 24.7891C31.5498 25.3173 30.7462 26.0666 30.1531 26.9728L27.4686 31.0667C26.9358 31.9069 26.1171 32.526 25.1636 32.8097C24.21 33.0935 23.1861 33.0226 22.2807 32.6104C21.7643 32.3618 21.3069 32.006 20.939 31.5665C20.5712 31.1271 20.3014 30.6142 20.1476 30.0621C19.9939 29.51 19.9597 28.9315 20.0475 28.3652C20.1352 27.7989 20.3429 27.2578 20.6565 26.7781L26.4216 17.9258C26.995 17.0201 27.8973 16.3721 28.9387 16.118C29.9801 15.8639 31.0794 16.0236 32.0055 16.5634Z" fill="#2E81DA"></path></svg> 